<svg width="16" height="16" viewBox="0 0 16 16" fill="none" xmlns="http://www.w3.org/2000/svg">
    <path d="M7.99316 14.731C8.91829 14.731 9.78646 14.5532 10.5977 14.1978C11.4089 13.8468 12.1243 13.3615 12.7441 12.7417C13.3639 12.1265 13.8493 11.4132 14.2002 10.6021C14.5511 9.79085 14.7266 8.92269 14.7266 7.99756C14.7266 7.07699 14.5488 6.2111 14.1934 5.3999C13.8424 4.5887 13.3571 3.87321 12.7373 3.25342C12.1175 2.63363 11.402 2.14827 10.5908 1.79736C9.77962 1.44645 8.91374 1.271 7.99316 1.271C7.07259 1.271 6.20671 1.44645 5.39551 1.79736C4.58431 2.14827 3.86882 2.63363 3.24902 3.25342C2.62923 3.87321 2.14388 4.5887 1.79297 5.3999C1.44206 6.2111 1.2666 7.07699 1.2666 7.99756C1.2666 8.92269 1.44206 9.79085 1.79297 10.6021C2.14844 11.4132 2.63379 12.1265 3.24902 12.7417C3.86882 13.3615 4.58431 13.8468 5.39551 14.1978C6.20671 14.5532 7.07259 14.731 7.99316 14.731ZM7.99316 13.2886C7.264 13.2886 6.57812 13.1519 5.93555 12.8784C5.29753 12.605 4.73698 12.2267 4.25391 11.7437C3.77083 11.2606 3.39258 10.7 3.11914 10.062C2.85026 9.41943 2.71582 8.73128 2.71582 7.99756C2.71582 7.26839 2.85026 6.5848 3.11914 5.94678C3.39258 5.3042 3.77083 4.74137 4.25391 4.2583C4.73698 3.77523 5.29753 3.39697 5.93555 3.12354C6.57357 2.8501 7.25944 2.71338 7.99316 2.71338C8.72689 2.71338 9.41276 2.8501 10.0508 3.12354C10.6888 3.39697 11.2493 3.77523 11.7324 4.2583C12.2201 4.74137 12.6006 5.3042 12.874 5.94678C13.1475 6.5848 13.2842 7.26839 13.2842 7.99756C13.2887 8.73128 13.152 9.41943 12.874 10.062C12.6006 10.7 12.2223 11.2606 11.7393 11.7437C11.2607 12.2267 10.7002 12.605 10.0576 12.8784C9.4196 13.1519 8.73145 13.2886 7.99316 13.2886ZM7.30273 11.0806C7.54883 11.0806 7.74707 10.9666 7.89746 10.7388L10.8027 6.24756C10.8483 6.17464 10.887 6.10173 10.9189 6.02881C10.9508 5.95133 10.9668 5.87386 10.9668 5.79639C10.9668 5.63232 10.903 5.49788 10.7754 5.39307C10.6478 5.28369 10.5042 5.229 10.3447 5.229C10.1305 5.229 9.95052 5.34521 9.80469 5.57764L7.28223 9.604L6.12012 8.13428C6.04264 8.03857 5.96061 7.97021 5.87402 7.9292C5.79199 7.88363 5.70085 7.86084 5.60059 7.86084C5.43197 7.86084 5.28841 7.92008 5.16992 8.03857C5.05599 8.15706 4.99902 8.30062 4.99902 8.46924C4.99902 8.62419 5.05827 8.77686 5.17676 8.92725L6.68066 10.7456C6.77181 10.8595 6.86751 10.9438 6.96777 10.9985C7.06803 11.0532 7.17969 11.0806 7.30273 11.0806Z" fill="#05D864"/>
</svg>
