<svg width="15" height="14" viewBox="0 0 15 14" fill="none" xmlns="http://www.w3.org/2000/svg">
    <path d="M7.49629 13.6663C8.41272 13.6663 9.27271 13.4903 10.0763 13.1382C10.8798 12.7905 11.5886 12.3098 12.2026 11.6958C12.8165 11.0864 13.2973 10.3798 13.6449 9.57628C13.9925 8.77271 14.1663 7.91272 14.1663 6.99629C14.1663 6.08438 13.9903 5.22664 13.6382 4.42307C13.2905 3.6195 12.8098 2.91074 12.1958 2.29678C11.5818 1.68282 10.8731 1.20203 10.0695 0.854423C9.26594 0.506813 8.4082 0.333008 7.49629 0.333008C6.58438 0.333008 5.72664 0.506813 4.92307 0.854423C4.1195 1.20203 3.41074 1.68282 2.79678 2.29678C2.18282 2.91074 1.70203 3.6195 1.35442 4.42307C1.00681 5.22664 0.833008 6.08438 0.833008 6.99629C0.833008 7.91272 1.00681 8.77271 1.35442 9.57628C1.70655 10.3798 2.18733 11.0864 2.79678 11.6958C3.41074 12.3098 4.1195 12.7905 4.92307 13.1382C5.72664 13.4903 6.58438 13.6663 7.49629 13.6663ZM7.49629 12.2375C6.77398 12.2375 6.09456 12.1021 5.45803 11.8312C4.82601 11.5604 4.27074 11.1857 3.79221 10.7071C3.31368 10.2286 2.93898 9.67334 2.66812 9.04132C2.40177 8.40479 2.26859 7.72311 2.26859 6.99629C2.26859 6.27398 2.40177 5.59682 2.66812 4.9648C2.93898 4.32827 3.31368 3.77074 3.79221 3.29221C4.27074 2.81368 4.82601 2.43898 5.45803 2.16812C6.09005 1.89725 6.76947 1.76182 7.49629 1.76182C8.22311 1.76182 8.90253 1.89725 9.53455 2.16812C10.1666 2.43898 10.7218 2.81368 11.2004 3.29221C11.6834 3.77074 12.0604 4.32827 12.3312 4.9648C12.6021 5.59682 12.7375 6.27398 12.7375 6.99629C12.742 7.72311 12.6066 8.40479 12.3312 9.04132C12.0604 9.67334 11.6857 10.2286 11.2071 10.7071C10.7331 11.1857 10.1779 11.5604 9.54132 11.8312C8.9093 12.1021 8.22762 12.2375 7.49629 12.2375ZM7.86196 9.91486C8.07413 9.91486 8.23891 9.85392 8.35629 9.73203C8.47818 9.61014 8.53912 9.42956 8.53912 9.1903V4.80905C8.53912 4.58785 8.4714 4.41178 8.33597 4.28087C8.20054 4.14995 8.02222 4.08449 7.80101 4.08449C7.53015 4.08449 7.24574 4.18381 6.94779 4.38244L5.86433 5.10701C5.68375 5.22889 5.59346 5.3869 5.59346 5.58102C5.59346 5.70742 5.63635 5.82028 5.72212 5.9196C5.8079 6.0144 5.91624 6.0618 6.04716 6.0618C6.10585 6.0618 6.16002 6.05503 6.20968 6.04149C6.25934 6.02343 6.32931 5.98506 6.4196 5.92637L7.15094 5.43882H7.20511V9.1903C7.20511 9.42956 7.2638 9.61014 7.38117 9.73203C7.49855 9.85392 7.65881 9.91486 7.86196 9.91486Z" fill="white"/>
</svg>
