<svg width="17" height="16" viewBox="0 0 17 16" fill="none" xmlns="http://www.w3.org/2000/svg">
    <path d="M8.49629 14.6663C9.41272 14.6663 10.2727 14.4903 11.0763 14.1382C11.8798 13.7905 12.5886 13.3098 13.2026 12.6958C13.8165 12.0864 14.2973 11.3798 14.6449 10.5763C14.9925 9.77271 15.1663 8.91272 15.1663 7.99629C15.1663 7.08438 14.9903 6.22664 14.6382 5.42307C14.2905 4.6195 13.8098 3.91074 13.1958 3.29678C12.5818 2.68282 11.8731 2.20203 11.0695 1.85442C10.2659 1.50681 9.4082 1.33301 8.49629 1.33301C7.58438 1.33301 6.72664 1.50681 5.92307 1.85442C5.1195 2.20203 4.41074 2.68282 3.79678 3.29678C3.18282 3.91074 2.70203 4.6195 2.35442 5.42307C2.00681 6.22664 1.83301 7.08438 1.83301 7.99629C1.83301 8.91272 2.00681 9.77271 2.35442 10.5763C2.70655 11.3798 3.18733 12.0864 3.79678 12.6958C4.41074 13.3098 5.1195 13.7905 5.92307 14.1382C6.72664 14.4903 7.58438 14.6663 8.49629 14.6663ZM8.49629 13.2375C7.77398 13.2375 7.09456 13.1021 6.45803 12.8312C5.82601 12.5604 5.27074 12.1857 4.79221 11.7071C4.31368 11.2286 3.93898 10.6733 3.66812 10.0413C3.40177 9.40479 3.26859 8.72311 3.26859 7.99629C3.26859 7.27398 3.40177 6.59682 3.66812 5.9648C3.93898 5.32827 4.31368 4.77074 4.79221 4.29221C5.27074 3.81368 5.82601 3.43898 6.45803 3.16812C7.09005 2.89725 7.76947 2.76182 8.49629 2.76182C9.22311 2.76182 9.90253 2.89725 10.5345 3.16812C11.1666 3.43898 11.7218 3.81368 12.2004 4.29221C12.6834 4.77074 13.0604 5.32827 13.3312 5.9648C13.6021 6.59682 13.7375 7.27398 13.7375 7.99629C13.742 8.72311 13.6066 9.40479 13.3312 10.0413C13.0604 10.6733 12.6857 11.2286 12.2071 11.7071C11.7331 12.1857 11.1779 12.5604 10.5413 12.8312C9.9093 13.1021 9.22762 13.2375 8.49629 13.2375ZM7.04716 10.8675H10.2772C10.4443 10.8675 10.5797 10.8201 10.6835 10.7253C10.7919 10.6259 10.846 10.495 10.846 10.3325C10.846 10.161 10.7941 10.03 10.6903 9.93975C10.5865 9.84494 10.4488 9.79754 10.2772 9.79754H8.30668V9.74337L9.57975 8.43645C9.89124 8.12495 10.135 7.83377 10.3111 7.56291C10.4917 7.28753 10.582 6.9828 10.582 6.64874C10.582 6.15215 10.3923 5.75262 10.0131 5.45016C9.63392 5.14318 9.13508 4.98969 8.5166 4.98969C8.03356 4.98969 7.60469 5.10932 7.22999 5.34858C6.8553 5.58333 6.61152 5.88128 6.49866 6.24244C6.4806 6.29661 6.46706 6.34853 6.45803 6.39819C6.45352 6.44784 6.45126 6.49524 6.45126 6.54039C6.45126 6.70291 6.50092 6.82931 6.60023 6.9196C6.70407 7.00989 6.8395 7.05503 7.00653 7.05503C7.15099 7.05503 7.2616 7.02117 7.33834 6.95346C7.4196 6.88574 7.48957 6.80448 7.54826 6.70968C7.63404 6.54265 7.75141 6.38916 7.90039 6.24921C8.04936 6.10475 8.25477 6.03252 8.5166 6.03252C8.7649 6.03252 8.96353 6.09798 9.11251 6.22889C9.26148 6.35981 9.33597 6.53362 9.33597 6.75031C9.33597 6.95346 9.266 7.14532 9.12605 7.3259C8.9861 7.50647 8.81907 7.69382 8.62495 7.88794L6.72889 9.81786C6.63409 9.90363 6.56863 9.9894 6.53252 10.0752C6.4964 10.161 6.47834 10.249 6.47834 10.3393C6.47834 10.4973 6.53026 10.6259 6.63409 10.7253C6.73792 10.8201 6.87561 10.8675 7.04716 10.8675Z" fill="#8A8A8A"/>
</svg>
