<svg width="16" height="16" viewBox="0 0 16 16" fill="none" xmlns="http://www.w3.org/2000/svg">
    <path d="M7.99316 14.7383C8.91829 14.7383 9.78646 14.5605 10.5977 14.2051C11.4089 13.8542 12.1243 13.3688 12.7441 12.749C13.3639 12.1338 13.8493 11.4206 14.2002 10.6094C14.5511 9.79818 14.7266 8.93001 14.7266 8.00488C14.7266 7.08431 14.5488 6.21842 14.1934 5.40723C13.8424 4.59603 13.3571 3.88053 12.7373 3.26074C12.1175 2.64095 11.402 2.1556 10.5908 1.80469C9.77962 1.45378 8.91374 1.27832 7.99316 1.27832C7.07259 1.27832 6.20671 1.45378 5.39551 1.80469C4.58431 2.1556 3.86882 2.64095 3.24902 3.26074C2.62923 3.88053 2.14388 4.59603 1.79297 5.40723C1.44206 6.21842 1.2666 7.08431 1.2666 8.00488C1.2666 8.93001 1.44206 9.79818 1.79297 10.6094C2.14844 11.4206 2.63379 12.1338 3.24902 12.749C3.86882 13.3688 4.58431 13.8542 5.39551 14.2051C6.20671 14.5605 7.07259 14.7383 7.99316 14.7383ZM7.99316 13.2959C7.264 13.2959 6.57812 13.1592 5.93555 12.8857C5.29753 12.6123 4.73698 12.234 4.25391 11.751C3.77083 11.2679 3.39258 10.7074 3.11914 10.0693C2.85026 9.42676 2.71582 8.73861 2.71582 8.00488C2.71582 7.27572 2.85026 6.59212 3.11914 5.9541C3.39258 5.31152 3.77083 4.7487 4.25391 4.26562C4.73698 3.78255 5.29753 3.4043 5.93555 3.13086C6.57357 2.85742 7.25944 2.7207 7.99316 2.7207C8.72689 2.7207 9.41276 2.85742 10.0508 3.13086C10.6888 3.4043 11.2493 3.78255 11.7324 4.26562C12.2201 4.7487 12.6006 5.31152 12.874 5.9541C13.1475 6.59212 13.2842 7.27572 13.2842 8.00488C13.2887 8.73861 13.152 9.42676 12.874 10.0693C12.6006 10.7074 12.2223 11.2679 11.7393 11.751C11.2607 12.234 10.7002 12.6123 10.0576 12.8857C9.4196 13.1592 8.73145 13.2959 7.99316 13.2959ZM7.97266 11.0469C8.69271 11.0469 9.26237 10.8851 9.68164 10.5615C10.1009 10.238 10.3105 9.81641 10.3105 9.29688C10.3105 8.92773 10.1852 8.611 9.93457 8.34668C9.68848 8.0778 9.3763 7.92741 8.99805 7.89551V7.82715C9.3125 7.78158 9.5791 7.63346 9.79785 7.38281C10.0166 7.1276 10.126 6.83822 10.126 6.51465C10.126 6.05892 9.93001 5.6875 9.53809 5.40039C9.15072 5.10872 8.64486 4.96289 8.02051 4.96289C7.47363 4.96289 7.01107 5.06999 6.63281 5.28418C6.25911 5.49837 6.02441 5.79004 5.92871 6.15918C5.91048 6.20931 5.89681 6.25716 5.8877 6.30273C5.88314 6.34831 5.88086 6.39844 5.88086 6.45312C5.88086 6.61263 5.93327 6.74023 6.03809 6.83594C6.14746 6.92708 6.28646 6.97266 6.45508 6.97266C6.70573 6.97266 6.88574 6.861 6.99512 6.6377C7.07259 6.42806 7.19564 6.264 7.36426 6.14551C7.53744 6.02702 7.74935 5.96777 8 5.96777C8.26888 5.96777 8.48079 6.0293 8.63574 6.15234C8.79069 6.27539 8.86816 6.44629 8.86816 6.66504C8.86816 6.88379 8.78385 7.06608 8.61523 7.21191C8.45117 7.35775 8.23698 7.43066 7.97266 7.43066H7.67188C7.50781 7.43066 7.37565 7.47624 7.27539 7.56738C7.17969 7.65853 7.13184 7.7793 7.13184 7.92969C7.13184 8.08008 7.18197 8.20312 7.28223 8.29883C7.38249 8.38997 7.51237 8.43555 7.67188 8.43555H8C8.31445 8.43555 8.5651 8.51074 8.75195 8.66113C8.9388 8.80697 9.03223 8.99837 9.03223 9.23535C9.03223 9.47233 8.93652 9.66374 8.74512 9.80957C8.55827 9.95085 8.3099 10.0215 8 10.0215C7.70378 10.0215 7.4668 9.95996 7.28906 9.83691C7.11589 9.70931 6.986 9.5498 6.89941 9.3584C6.78092 9.12598 6.60091 9.00977 6.35938 9.00977C6.1862 9.00977 6.0472 9.0599 5.94238 9.16016C5.83757 9.26042 5.78516 9.3903 5.78516 9.5498C5.78516 9.64095 5.80111 9.73665 5.83301 9.83691C5.93327 10.1924 6.18164 10.484 6.57812 10.7119C6.97461 10.9352 7.43945 11.0469 7.97266 11.0469Z" fill="#8A8A8A"/>
</svg>
