<svg width="32" height="32" viewBox="0 0 32 32" fill="none" xmlns="http://www.w3.org/2000/svg">
<g clip-path="url(#clip0_305_1348)">
<path d="M16 28C22.65 28 28 22.65 28 16C28 9.34996 22.65 4 16 4C9.34996 4 4 9.34996 4 16C4 22.65 9.34996 28 16 28Z" fill="#50AF95"/>
<path fill-rule="evenodd" clip-rule="evenodd" d="M11.2465 10.0641L8.51149 15.809C8.50108 15.8304 8.49778 15.8545 8.50208 15.8779C8.50637 15.9013 8.51803 15.9227 8.53535 15.9389L15.922 23.0171C15.943 23.0372 15.9709 23.0485 16 23.0485C16.0291 23.0485 16.057 23.0372 16.078 23.0171L23.4646 15.9394C23.482 15.9231 23.4936 15.9017 23.4979 15.8783C23.5022 15.855 23.4989 15.8308 23.4885 15.8095L20.7535 10.0645C20.7447 10.0452 20.7305 10.0289 20.7126 10.0174C20.6947 10.006 20.6739 9.99995 20.6527 10H11.3482C11.3268 9.99974 11.3059 10.0057 11.2879 10.017C11.2698 10.0284 11.2555 10.0447 11.2465 10.0641V10.0641V10.0641Z" fill="white"/>
<path fill-rule="evenodd" clip-rule="evenodd" d="M16.949 16.3989C16.896 16.4029 16.622 16.4193 16.0108 16.4193C15.5247 16.4193 15.1796 16.4047 15.0585 16.3989C13.1799 16.3163 11.7777 15.9893 11.7777 15.5978C11.7777 15.2062 13.1799 14.8796 15.0585 14.7957V16.0733C15.1813 16.0821 15.5331 16.1029 16.0192 16.1029C16.6026 16.1029 16.8947 16.0786 16.9472 16.0737V14.7966C18.8219 14.8801 20.221 15.2071 20.221 15.5978C20.221 15.9884 18.8223 16.3154 16.9472 16.3985L16.949 16.3989ZM16.949 14.6644V13.5212H19.5652V11.7778H12.4423V13.5212H15.0581V14.664C12.932 14.7616 11.3331 15.1828 11.3331 15.6875C11.3331 16.1921 12.932 16.6128 15.0581 16.7109V20.3744H16.9486V16.7096C19.0698 16.612 20.666 16.1912 20.666 15.687C20.666 15.1828 19.0711 14.7621 16.9486 14.664L16.949 14.6644Z" fill="#50AF95"/>
<circle cx="16" cy="16" r="15" stroke="url(#paint0_linear_305_1348)" stroke-width="2"/>
<circle cx="26" cy="25" r="7" fill="#4D4AEC" stroke="white" stroke-width="2"/>
<path fill-rule="evenodd" clip-rule="evenodd" d="M28.6022 28.3978L22.6022 22.3978L23.3977 21.6023L29.3977 27.6023L28.6022 28.3978Z" fill="white"/>
<path fill-rule="evenodd" clip-rule="evenodd" d="M22.6022 27.6022L28.6022 21.6022L29.3977 22.3977L23.3977 28.3977L22.6022 27.6022Z" fill="white"/>
<path d="M28.625 25C28.625 26.4497 27.4497 27.625 26 27.625C24.5503 27.625 23.375 26.4497 23.375 25C23.375 23.5503 24.5503 22.375 26 22.375C27.4497 22.375 28.625 23.5503 28.625 25Z" fill="#4D4AEC"/>
<path fill-rule="evenodd" clip-rule="evenodd" d="M26 26.625C26.8975 26.625 27.625 25.8975 27.625 25C27.625 24.1025 26.8975 23.375 26 23.375C25.1025 23.375 24.375 24.1025 24.375 25C24.375 25.8975 25.1025 26.625 26 26.625ZM26 27.625C27.4497 27.625 28.625 26.4497 28.625 25C28.625 23.5503 27.4497 22.375 26 22.375C24.5503 22.375 23.375 23.5503 23.375 25C23.375 26.4497 24.5503 27.625 26 27.625Z" fill="white"/>
</g>
<defs>
<linearGradient id="paint0_linear_305_1348" x1="19.5" y1="10" x2="6.5" y2="29.5" gradientUnits="userSpaceOnUse">
<stop stop-color="#CC68BC"/>
<stop offset="1" stop-color="#5DC7D9"/>
</linearGradient>
<clipPath id="clip0_305_1348">
<rect width="32" height="32" fill="white"/>
</clipPath>
</defs>
</svg>
