<svg width="32" height="32" viewBox="0 0 32 32" fill="none" xmlns="http://www.w3.org/2000/svg">
<g clip-path="url(#clip0_305_1350)">
<circle cx="16" cy="16" r="15" stroke="url(#paint0_linear_305_1350)" stroke-width="2"/>
<path d="M16 4C22.628 4 28 9.37305 28 16C28 22.628 22.628 28 16 28C9.37305 28 4 22.6275 4 16C4 9.37305 9.37305 4 16 4Z" fill="#F5AC37"/>
<path d="M16.4413 16.8474H21.0011C21.0983 16.8474 21.1442 16.8474 21.1512 16.7199C21.1885 16.2561 21.1885 15.7895 21.1512 15.3251C21.1512 15.2349 21.1064 15.1977 21.0086 15.1977H11.9339C11.8215 15.1977 11.7913 15.2349 11.7913 15.3402V16.6751C11.7913 16.8474 11.7913 16.8474 11.9711 16.8474H16.4413V16.8474ZM20.642 13.6376C20.6549 13.6036 20.6549 13.5663 20.642 13.5328C20.5658 13.367 20.4757 13.2088 20.3709 13.0603C20.2132 12.8065 20.0275 12.5727 19.8158 12.3626C19.7159 12.2357 19.6003 12.1218 19.4707 12.0251C18.8216 11.4727 18.05 11.0817 17.2205 10.8852C16.802 10.7912 16.3743 10.7464 15.9456 10.7502H11.9182C11.8059 10.7502 11.7908 10.795 11.7908 10.8927V13.555C11.7908 13.6673 11.7908 13.6975 11.9333 13.6975H20.588C20.588 13.6975 20.663 13.6824 20.6782 13.6376H20.6414H20.642ZM20.642 18.4074C20.5145 18.3934 20.386 18.3934 20.2586 18.4074H11.9414C11.8291 18.4074 11.7913 18.4074 11.7913 18.5576V21.1604C11.7913 21.2803 11.7913 21.3105 11.9414 21.3105H15.7814C15.965 21.3246 16.1486 21.3116 16.3284 21.2733C16.8857 21.2333 17.4338 21.1123 17.9565 20.9131C18.1466 20.8472 18.3302 20.7613 18.5036 20.6582H18.5559C19.4561 20.19 20.1873 19.4545 20.6485 18.5516C20.6485 18.5516 20.7008 18.4382 20.642 18.4085V18.4074ZM10.2841 22.66V22.6152V20.8677V20.2753V18.5127C10.2841 18.415 10.2841 18.4004 10.1643 18.4004H8.53668C8.4465 18.4004 8.40924 18.4004 8.40924 18.2805V16.8555H10.1491C10.2463 16.8555 10.2841 16.8555 10.2841 16.728V15.3181C10.2841 15.2279 10.2841 15.2058 10.1643 15.2058H8.53668C8.4465 15.2058 8.40924 15.2058 8.40924 15.0859V13.7661C8.40924 13.6835 8.40924 13.6613 8.52912 13.6613H10.1416C10.2539 13.6613 10.2841 13.6613 10.2841 13.5188V9.47629C10.2841 9.35641 10.2841 9.32617 10.4343 9.32617H16.059C16.4672 9.34237 16.8727 9.38719 17.274 9.46117C18.1007 9.61399 18.8951 9.90938 19.6214 10.3311C20.1031 10.6146 20.5464 10.957 20.9411 11.3512C21.2381 11.6595 21.506 11.9933 21.7436 12.3486C21.9796 12.7088 22.1756 13.0938 22.3295 13.4961C22.3484 13.6009 22.4488 13.6716 22.5536 13.6538H23.8961C24.0683 13.6538 24.0683 13.6538 24.0759 13.819V15.0491C24.0759 15.169 24.0311 15.1993 23.9106 15.1993H22.8754C22.7707 15.1993 22.7404 15.1993 22.748 15.3343C22.789 15.7911 22.789 16.2496 22.748 16.7064C22.748 16.8339 22.748 16.849 22.8911 16.849H24.0753C24.1277 16.9165 24.0753 16.984 24.0753 17.052C24.0829 17.139 24.0829 17.227 24.0753 17.3139V18.2217C24.0753 18.3491 24.0381 18.3869 23.9252 18.3869H22.5077C22.4089 18.368 22.3128 18.4312 22.2901 18.5295C21.9526 19.407 21.4126 20.1938 20.7149 20.8245C20.46 21.054 20.1922 21.27 19.9124 21.4693C19.6122 21.6421 19.32 21.8219 19.0122 21.9645C18.4458 22.2193 17.8518 22.4073 17.2421 22.5266C16.6632 22.6303 16.0762 22.6773 15.4871 22.6692H10.282V22.6616L10.2841 22.66Z" fill="#FEFEFD"/>
<circle cx="26" cy="25" r="7" fill="#4D4AEC" stroke="white" stroke-width="2"/>
<path fill-rule="evenodd" clip-rule="evenodd" d="M28.6022 28.3978L22.6022 22.3978L23.3977 21.6023L29.3977 27.6023L28.6022 28.3978Z" fill="white"/>
<path fill-rule="evenodd" clip-rule="evenodd" d="M22.6022 27.6022L28.6022 21.6022L29.3977 22.3977L23.3977 28.3977L22.6022 27.6022Z" fill="white"/>
<path d="M28.625 25C28.625 26.4497 27.4497 27.625 26 27.625C24.5503 27.625 23.375 26.4497 23.375 25C23.375 23.5503 24.5503 22.375 26 22.375C27.4497 22.375 28.625 23.5503 28.625 25Z" fill="#4D4AEC"/>
<path fill-rule="evenodd" clip-rule="evenodd" d="M26 26.625C26.8975 26.625 27.625 25.8975 27.625 25C27.625 24.1025 26.8975 23.375 26 23.375C25.1025 23.375 24.375 24.1025 24.375 25C24.375 25.8975 25.1025 26.625 26 26.625ZM26 27.625C27.4497 27.625 28.625 26.4497 28.625 25C28.625 23.5503 27.4497 22.375 26 22.375C24.5503 22.375 23.375 23.5503 23.375 25C23.375 26.4497 24.5503 27.625 26 27.625Z" fill="white"/>
</g>
<defs>
<linearGradient id="paint0_linear_305_1350" x1="19.5" y1="10" x2="6.5" y2="29.5" gradientUnits="userSpaceOnUse">
<stop stop-color="#CC68BC"/>
<stop offset="1" stop-color="#5DC7D9"/>
</linearGradient>
<clipPath id="clip0_305_1350">
<rect width="32" height="32" fill="white"/>
</clipPath>
</defs>
</svg>
