<svg width="32" height="32" viewBox="0 0 32 32" fill="none" xmlns="http://www.w3.org/2000/svg">
<path d="M21 27C27.0959 27 32 22.0959 32 16C32 9.90413 27.0959 5 21 5C14.9041 5 10 9.90413 10 16C10 22.0959 14.9041 27 21 27Z" fill="#2775CA"/>
<path d="M24.0251 17.7417C24.0251 16.1375 23.0626 15.5875 21.1376 15.3584C19.7626 15.175 19.4876 14.8084 19.4876 14.1667C19.4876 13.5249 19.9459 13.1125 20.8626 13.1125C21.6876 13.1125 22.1459 13.3875 22.3751 14.075C22.4209 14.2125 22.5584 14.3042 22.6959 14.3042H23.4292C23.6126 14.3042 23.7501 14.1667 23.7501 13.9834V13.9375C23.5667 12.9292 22.7417 12.15 21.6876 12.0584V10.9584C21.6876 10.775 21.5501 10.6375 21.3209 10.5917H20.6334C20.4501 10.5917 20.3126 10.7292 20.2667 10.9584V12.0125C18.8917 12.1959 18.0209 13.1125 18.0209 14.2584C18.0209 15.7709 18.9376 16.3667 20.8626 16.5959C22.1459 16.825 22.5584 17.1 22.5584 17.8334C22.5584 18.5668 21.9167 19.0709 21.0459 19.0709C19.8542 19.0709 19.4417 18.5667 19.3042 17.8792C19.2584 17.6959 19.1209 17.6042 18.9834 17.6042H18.2042C18.0209 17.6042 17.8834 17.7417 17.8834 17.925V17.9709C18.0667 19.1167 18.8001 19.9417 20.3126 20.1709V21.2709C20.3126 21.4542 20.4501 21.5917 20.6792 21.6375H21.3667C21.5501 21.6375 21.6876 21.5 21.7334 21.2709V20.1709C23.1084 19.9417 24.0251 18.9792 24.0251 17.7417V17.7417Z" fill="white"/>
<path d="M18.6626 22.5541C15.0875 21.2708 13.2542 17.2833 14.5834 13.7541C15.2709 11.8291 16.7834 10.3625 18.6626 9.67497C18.8459 9.58334 18.9376 9.44584 18.9376 9.2166V8.57497C18.9376 8.3916 18.8459 8.2541 18.6626 8.20834C18.6167 8.20834 18.5251 8.20834 18.4792 8.2541C14.125 9.6291 11.7417 14.2583 13.1167 18.6125C13.9417 21.1791 15.9125 23.15 18.4792 23.975C18.6626 24.0666 18.8459 23.975 18.8917 23.7916C18.9376 23.7458 18.9376 23.7 18.9376 23.6083V22.9666C18.9376 22.8291 18.8001 22.6458 18.6626 22.5541ZM23.5209 8.2541C23.3376 8.16247 23.1542 8.2541 23.1084 8.43747C23.0626 8.48334 23.0626 8.5291 23.0626 8.62084V9.26247C23.0626 9.44584 23.2001 9.6291 23.3376 9.72084C26.9126 11.0041 28.7459 14.9916 27.4167 18.5208C26.7292 20.4458 25.2167 21.9125 23.3376 22.6C23.1542 22.6916 23.0626 22.8291 23.0626 23.0583V23.7C23.0626 23.8833 23.1542 24.0208 23.3376 24.0666C23.3834 24.0666 23.4751 24.0666 23.5209 24.0208C27.8751 22.6458 30.2585 18.0166 28.8834 13.6625C28.0584 11.05 26.0417 9.0791 23.5209 8.2541V8.2541Z" fill="white"/>
<path d="M11 27C17.0751 27 22 22.0751 22 16C22 9.92487 17.0751 5 11 5C4.92487 5 0 9.92487 0 16C0 22.0751 4.92487 27 11 27Z" fill="#E84142"/>
<path d="M14.8803 16.2858C15.2614 15.6276 15.8764 15.6276 16.2575 16.2858L18.6307 20.452C19.0118 21.1102 18.7 21.6472 17.9378 21.6472H13.1567C12.4032 21.6472 12.0914 21.1102 12.4638 20.452L14.8803 16.2858ZM10.2898 8.26535C10.6709 7.60709 11.2772 7.60709 11.6583 8.26535L12.1866 9.21811L13.4339 11.4094C13.737 12.0331 13.737 12.7693 13.4339 13.3929L9.25042 20.6425C8.86932 21.2315 8.23703 21.6039 7.53546 21.6472H4.06223C3.30003 21.6472 2.98821 21.1189 3.36932 20.452L10.2898 8.26535Z" fill="white"/>
</svg>
