<svg width="32" height="32" viewBox="0 0 32 32" fill="none" xmlns="http://www.w3.org/2000/svg">
<g clip-path="url(#clip0_305_1347)">
<path d="M16 28C22.65 28 28 22.65 28 16C28 9.34996 22.65 4 16 4C9.34996 4 4 9.34996 4 16C4 22.65 9.34996 28 16 28Z" fill="#2775CA"/>
<path d="M19.3 17.9C19.3 16.1501 18.25 15.5501 16.15 15.3001C14.65 15.1001 14.35 14.7001 14.35 14C14.35 13.2999 14.85 12.8501 15.85 12.8501C16.75 12.8501 17.25 13.1501 17.5 13.9001C17.55 14.0501 17.7 14.15 17.85 14.15H18.65C18.85 14.15 19 14 19 13.8001V13.7501C18.8 12.65 17.9 11.8001 16.75 11.7001V10.5001C16.75 10.3001 16.6 10.1501 16.35 10.1H15.6C15.4 10.1 15.25 10.25 15.2 10.5001V11.6501C13.7 11.8501 12.75 12.8501 12.75 14.1001C12.75 15.7501 13.75 16.4 15.85 16.6501C17.25 16.9001 17.7 17.2 17.7 18.0001C17.7 18.8001 17 19.3501 16.05 19.3501C14.75 19.3501 14.3 18.8 14.15 18.05C14.1 17.8501 13.95 17.75 13.8 17.75H12.95C12.75 17.75 12.6 17.9 12.6 18.1V18.1501C12.8 19.4 13.6 20.3 15.25 20.5501V21.7501C15.25 21.95 15.4 22.1 15.65 22.15H16.4C16.6 22.15 16.75 22 16.8 21.7501V20.5501C18.3 20.3 19.3 19.25 19.3 17.9V17.9Z" fill="white"/>
<path d="M13.45 23.1499C9.55 21.75 7.54996 17.4 9.00004 13.5499C9.75005 11.4499 11.4 9.84998 13.45 9.09998C13.6501 9.00002 13.75 8.85001 13.75 8.59993V7.89998C13.75 7.69994 13.6501 7.54994 13.45 7.50002C13.4 7.50002 13.3 7.50001 13.25 7.54993C8.5 9.04993 5.89996 14.1 7.39996 18.85C8.29996 21.6499 10.45 23.8 13.25 24.7C13.45 24.7999 13.6501 24.7 13.7 24.4999C13.75 24.45 13.75 24.4 13.75 24.3V23.5999C13.75 23.4499 13.6 23.25 13.45 23.1499ZM18.7501 7.54993C18.55 7.44997 18.35 7.54994 18.3001 7.74998C18.25 7.80002 18.25 7.84994 18.25 7.95002V8.64998C18.25 8.85002 18.4 9.04994 18.55 9.15002C22.45 10.5499 24.4501 14.8999 23 18.75C22.25 20.85 20.6 22.45 18.55 23.2C18.35 23.2999 18.25 23.4499 18.25 23.7V24.4C18.25 24.6 18.35 24.75 18.55 24.7999C18.6001 24.7999 18.7 24.7999 18.7501 24.75C23.5 23.25 26.1001 18.1999 24.6001 13.45C23.7001 10.6 21.5 8.44993 18.7501 7.54993V7.54993Z" fill="white"/>
<circle cx="16" cy="16" r="15" stroke="url(#paint0_linear_305_1347)" stroke-width="2"/>
<circle cx="26" cy="25" r="7" fill="#4D4AEC" stroke="white" stroke-width="2"/>
<path fill-rule="evenodd" clip-rule="evenodd" d="M28.6022 28.3978L22.6022 22.3978L23.3977 21.6023L29.3977 27.6023L28.6022 28.3978Z" fill="white"/>
<path fill-rule="evenodd" clip-rule="evenodd" d="M22.6022 27.6022L28.6022 21.6022L29.3977 22.3977L23.3977 28.3977L22.6022 27.6022Z" fill="white"/>
<path d="M28.625 25C28.625 26.4497 27.4497 27.625 26 27.625C24.5503 27.625 23.375 26.4497 23.375 25C23.375 23.5503 24.5503 22.375 26 22.375C27.4497 22.375 28.625 23.5503 28.625 25Z" fill="#4D4AEC"/>
<path fill-rule="evenodd" clip-rule="evenodd" d="M26 26.625C26.8975 26.625 27.625 25.8975 27.625 25C27.625 24.1025 26.8975 23.375 26 23.375C25.1025 23.375 24.375 24.1025 24.375 25C24.375 25.8975 25.1025 26.625 26 26.625ZM26 27.625C27.4497 27.625 28.625 26.4497 28.625 25C28.625 23.5503 27.4497 22.375 26 22.375C24.5503 22.375 23.375 23.5503 23.375 25C23.375 26.4497 24.5503 27.625 26 27.625Z" fill="white"/>
</g>
<defs>
<linearGradient id="paint0_linear_305_1347" x1="19.5" y1="10" x2="6.5" y2="29.5" gradientUnits="userSpaceOnUse">
<stop stop-color="#01A08F"/>
<stop offset="1" stop-color="#36A5EC"/>
</linearGradient>
<clipPath id="clip0_305_1347">
<rect width="32" height="32" fill="white"/>
</clipPath>
</defs>
</svg>
